<?xml version="1.0" encoding="UTF-8" standalone="no"?>
<!-- Generator: Adobe Illustrator 15.0.0, SVG Export Plug-In . SVG Version: 6.00 Build 0)  -->

<svg
   xmlns:dc="http://purl.org/dc/elements/1.1/"
   xmlns:cc="http://creativecommons.org/ns#"
   xmlns:rdf="http://www.w3.org/1999/02/22-rdf-syntax-ns#"
   xmlns:svg="http://www.w3.org/2000/svg"
   xmlns="http://www.w3.org/2000/svg"
   xmlns:sodipodi="http://sodipodi.sourceforge.net/DTD/sodipodi-0.dtd"
   xmlns:inkscape="http://www.inkscape.org/namespaces/inkscape"
   version="1.1"
   id="レイヤー_1"
   x="0px"
   y="0px"
   width="181.72084"
   height="210.51126"
   viewBox="0 0 181.72083 210.51126"
   enable-background="new 0 0 401.98 559.472"
   xml:space="preserve"
   inkscape:version="0.91 r13725"
   sodipodi:docname="go_complete_2.svg"><metadata
     id="metadata61"><rdf:RDF><cc:Work
         rdf:about=""><dc:format>image/svg+xml</dc:format><dc:type
           rdf:resource="http://purl.org/dc/dcmitype/StillImage" /><dc:title /></cc:Work></rdf:RDF></metadata><defs
     id="defs59"><clipPath
       clipPathUnits="userSpaceOnUse"
       id="clipPath4240"><path
         style="color:#000000;display:inline;overflow:visible;visibility:visible;fill:none;fill-opacity:1;fill-rule:nonzero;stroke:#0093d9;stroke-width:0.99999994;stroke-linecap:round;stroke-linejoin:miter;stroke-miterlimit:4;stroke-dasharray:1.99999982, 3.99999963;stroke-dashoffset:7.51718092;stroke-opacity:1;marker:none;enable-background:accumulate"
         d="m 199.80469,92.630859 c -28.93594,16.755011 -57.87242,33.509081 -86.8086,50.263671 -0.008,34.88542 -0.0198,69.77084 -0.0312,104.65625 30.10957,17.45866 60.21744,34.92024 90.32813,52.37695 30.12084,-17.43941 60.24078,-34.88038 90.36133,-52.32031 0.008,-34.88476 0.0198,-69.76953 0.0312,-104.6543 -30.10937,-17.46029 -60.21904,-34.92007 -90.32813,-52.380854 -1.18424,0.686198 -2.36849,1.372395 -3.55273,2.058593 z"
         id="path4242"
         inkscape:connector-curvature="0" /></clipPath><clipPath
       clipPathUnits="userSpaceOnUse"
       id="clipPath4279"><path
         style="color:#000000;display:inline;overflow:visible;visibility:visible;fill:none;fill-opacity:1;fill-rule:nonzero;stroke:#0093d9;stroke-width:3.06308389;stroke-linecap:round;stroke-linejoin:miter;stroke-miterlimit:4;stroke-dasharray:6.12616755, 12.25233507;stroke-dashoffset:7.51718092;stroke-opacity:1;marker:none;enable-background:accumulate"
         d="M 192.94692,-99.555802 C 101.23324,-49.957589 9.5178355,-0.36217469 -82.196622,49.234779 c -0.0259,103.267851 -0.06284,206.535701 -0.09905,309.803561 95.433545,51.68115 190.861732,103.37091 286.298852,155.04631 95.4693,-51.62416 190.93574,-103.25297 286.40407,-154.87864 0.0254,-103.26594 0.0628,-206.53186 0.0989,-309.797784 C 395.0734,-2.2777712 299.63948,-53.962206 204.20746,-105.64965 c -3.75351,2.03128 -7.50702,4.06256 -11.26054,6.093848 z"
         id="path4281"
         inkscape:connector-curvature="0" /></clipPath><clipPath
       clipPathUnits="userSpaceOnUse"
       id="clipPath4283"><path
         style="color:#000000;display:inline;overflow:visible;visibility:visible;fill:none;fill-opacity:1;fill-rule:nonzero;stroke:#0093d9;stroke-width:0.99999994;stroke-linecap:round;stroke-linejoin:miter;stroke-miterlimit:4;stroke-dasharray:1.99999982, 3.99999963;stroke-dashoffset:7.51718092;stroke-opacity:1;marker:none;enable-background:accumulate"
         d="M 86.839844,2.0585938 C 57.90391,18.813608 28.96743,35.567677 0.03125,52.322266 0.02307931,87.207683 0.01142508,122.0931 0,156.97852 c 30.109563,17.45866 60.217434,34.92023 90.328125,52.37695 30.120845,-17.43941 60.240785,-34.88039 90.361325,-52.32031 0.008,-34.88477 0.0198,-69.769535 0.0312,-104.654301 C 150.61134,34.92056 120.50166,17.460789 90.392578,0 89.208333,0.68619792 88.024089,1.3723958 86.839844,2.0585938 Z"
         id="path4285"
         inkscape:connector-curvature="0" /></clipPath><clipPath
       clipPathUnits="userSpaceOnUse"
       id="clipPath4329"><path
         style="color:#000000;display:inline;overflow:visible;visibility:visible;fill:none;fill-opacity:1;fill-rule:nonzero;stroke:#0093d9;stroke-width:0.62609774;stroke-linecap:round;stroke-linejoin:miter;stroke-miterlimit:4;stroke-dasharray:1.25219539, 2.50439077;stroke-dashoffset:7.51718092;stroke-opacity:1;marker:none;enable-background:accumulate"
         d="M 79.960432,62.49866 C 57.983333,71.146273 36.00582,79.793398 14.028534,88.440791 c -0.0062,18.005089 -0.01506,36.010179 -0.02374,54.015279 22.868481,9.01078 45.735676,18.02306 68.605013,27.03284 22.877053,-9.00085 45.753403,-18.0025 68.630223,-27.00361 0.006,-18.00476 0.015,-36.00951 0.0237,-54.014268 -22.86828,-9.011625 -45.73685,-18.022977 -68.60496,-27.034855 -0.899445,0.354161 -1.798889,0.708322 -2.698333,1.062483 z"
         id="path4331"
         inkscape:connector-curvature="0" /></clipPath><clipPath
       clipPathUnits="userSpaceOnUse"
       id="clipPath4333"><path
         style="color:#000000;display:inline;overflow:visible;visibility:visible;fill:none;fill-opacity:1;fill-rule:nonzero;stroke:#0093d9;stroke-width:3.06308389;stroke-linecap:round;stroke-linejoin:miter;stroke-miterlimit:4;stroke-dasharray:6.12616755, 12.25233507;stroke-dashoffset:7.51718092;stroke-opacity:1;marker:none;enable-background:accumulate"
         d="M 187.63382,-104.51798 C 95.920146,-54.919771 4.2047375,-5.3243569 -87.509719,44.272597 -87.535616,147.54045 -87.572555,250.80829 -87.608767,354.07615 7.8247768,405.7573 103.25296,457.44706 198.69008,509.12246 294.15937,457.4983 389.6258,405.86949 485.09414,354.24382 485.1195,250.97788 485.1569,147.71197 485.19303,44.446044 389.76029,-7.2399534 294.32637,-58.924388 198.89437,-110.61184 c -3.75352,2.03129 -7.50703,4.06257 -11.26055,6.09386 z"
         id="path4335"
         inkscape:connector-curvature="0" /></clipPath></defs><sodipodi:namedview
     pagecolor="#ffffff"
     bordercolor="#666666"
     borderopacity="1"
     objecttolerance="10"
     gridtolerance="10"
     guidetolerance="10"
     inkscape:pageopacity="0"
     inkscape:pageshadow="2"
     inkscape:window-width="1366"
     inkscape:window-height="704"
     id="namedview57"
     showgrid="false"
     fit-margin-top="0"
     fit-margin-left="0"
     fit-margin-right="0"
     fit-margin-bottom="0"
     inkscape:zoom="1.193105"
     inkscape:cx="-14.978382"
     inkscape:cy="77.945944"
     inkscape:window-x="0"
     inkscape:window-y="27"
     inkscape:window-maximized="1"
     inkscape:current-layer="レイヤー_1" /><rect
     style="fill:#ffffff;fill-opacity:1"
     id="rect4238"
     width="280.78"
     height="275.7511"
     x="44.421909"
     y="49.039104"
     clip-path="url(#clipPath4240)"
     transform="translate(-112.4648,-89.994333)" /><g
     id="g4195"
     transform="matrix(0.31550293,0,0,0.33781488,28.140917,37.944257)"
     clip-path="url(#clipPath4333)"><path
       id="path3"
       d="m 10.634,300.493 c 0.764,15.751 16.499,8.463 23.626,3.539 6.765,-4.675 8.743,-0.789 9.337,-10.015 0.389,-6.064 1.088,-12.128 0.744,-18.216 -10.23,-0.927 -21.357,1.509 -29.744,7.602 -4.32,3.139 -12.42,13.158 -3.963,17.09"
       inkscape:connector-curvature="0"
       style="clip-rule:evenodd;fill:#f6d2a2;fill-rule:evenodd;stroke:#000000;stroke-width:3;stroke-linecap:round" /><path
       id="path5"
       d="m 10.634,300.493 c 2.29,-0.852 4.717,-1.457 6.271,-3.528"
       inkscape:connector-curvature="0"
       style="clip-rule:evenodd;fill:#c6b198;fill-rule:evenodd;stroke:#000000;stroke-width:3;stroke-linecap:round" /><path
       id="path7"
       d="M 46.997,112.853 C -13.3,95.897 31.536,19.189 79.956,50.74 l -32.959,62.113 z"
       inkscape:connector-curvature="0"
       style="clip-rule:evenodd;fill:#6ad7e5;fill-rule:evenodd;stroke:#000000;stroke-width:3;stroke-linecap:round" /><path
       id="path9"
       d="m 314.895,44.984 c 47.727,-33.523 90.856,42.111 35.388,61.141 L 314.895,44.984 Z"
       inkscape:connector-curvature="0"
       style="clip-rule:evenodd;fill:#6ad7e5;fill-rule:evenodd;stroke:#000000;stroke-width:3;stroke-linecap:round" /><path
       id="path11"
       d="m 325.161,494.343 c 12.123,7.501 34.282,30.182 16.096,41.18 -17.474,15.999 -27.254,-17.561 -42.591,-22.211 6.605,-8.97 14.977,-17.149 26.495,-18.969 z"
       inkscape:connector-curvature="0"
       style="clip-rule:evenodd;fill:#f6d2a2;fill-rule:evenodd;stroke:#000000;stroke-width:3;stroke-linecap:round" /><path
       id="path13"
       d="m 341.257,535.522 c -2.696,-5.361 -3.601,-11.618 -8.102,-15.939"
       inkscape:connector-curvature="0"
       style="clip-rule:evenodd;fill:none;fill-rule:evenodd;stroke:#000000;stroke-width:3;stroke-linecap:round" /><path
       id="path15"
       d="m 108.579,519.975 c -14.229,2.202 -22.238,15.039 -34.1,21.558 -11.178,6.665 -15.454,-2.134 -16.461,-3.92 -1.752,-0.799 -1.605,0.744 -4.309,-1.979 -10.362,-16.354 10.797,-28.308 21.815,-36.432 15.346,-3.102 24.963,10.202 33.055,20.773 z"
       inkscape:connector-curvature="0"
       style="clip-rule:evenodd;fill:#f6d2a2;fill-rule:evenodd;stroke:#000000;stroke-width:3;stroke-linecap:round" /><path
       id="path17"
       d="m 58.019,537.612 c 0.542,-6.233 5.484,-10.407 7.838,-15.677"
       inkscape:connector-curvature="0"
       style="clip-rule:evenodd;fill:none;fill-rule:evenodd;stroke:#000000;stroke-width:3;stroke-linecap:round" /><path
       id="path19"
       d="M 49.513,91.667 C 41.558,87.459 35.722,81.744 40.588,72.543 45.093,64.025 53.462,64.95 61.418,69.158 L 49.513,91.667 Z"
       inkscape:connector-curvature="0"
       style="clip-rule:evenodd;fill-rule:evenodd" /><path
       id="path21"
       d="m 337.716,83.667 c 7.955,-4.208 13.791,-9.923 8.925,-19.124 -4.505,-8.518 -12.874,-7.593 -20.83,-3.385 l 11.905,22.509 z"
       inkscape:connector-curvature="0"
       style="clip-rule:evenodd;fill-rule:evenodd" /><path
       id="path23"
       d="m 392.475,298.493 c -0.764,15.751 -16.499,8.463 -23.626,3.539 -6.765,-4.675 -8.743,-0.789 -9.337,-10.015 -0.389,-6.064 -1.088,-12.128 -0.744,-18.216 10.23,-0.927 21.357,1.509 29.744,7.602 4.319,3.139 12.42,13.158 3.963,17.09"
       inkscape:connector-curvature="0"
       style="clip-rule:evenodd;fill:#f6d2a2;fill-rule:evenodd;stroke:#000000;stroke-width:3;stroke-linecap:round" /><path
       id="path25"
       d="m 392.475,298.493 c -2.29,-0.852 -4.717,-1.457 -6.271,-3.528"
       inkscape:connector-curvature="0"
       style="clip-rule:evenodd;fill:#c6b198;fill-rule:evenodd;stroke:#000000;stroke-width:3;stroke-linecap:round" /><g
       id="g27"><path
         id="path29"
         d="m 195.512,13.124 c 60.365,0 116.953,8.633 146.452,66.629 26.478,65.006 17.062,135.104 21.1,203.806 3.468,58.992 11.157,127.145 -16.21,181.812 -28.79,57.514 -100.73,71.982 -160,69.863 C 140.299,533.568 84.06,518.38 57.785,475.845 26.959,425.945 41.553,351.747 43.792,296.223 46.444,230.452 25.977,164.481 47.584,100.122 69.999,33.359 130.451,18.271 195.512,13.124"
         inkscape:connector-curvature="0"
         style="clip-rule:evenodd;fill:#6ad7e5;fill-rule:evenodd;stroke:#000000;stroke-width:3;stroke-linecap:round" /></g><path
       id="path31"
       d="m 206.169,94.16 c 10.838,63.003 113.822,46.345 99.03,-17.197 -13.264,-56.98 -102.632,-41.208 -99.03,17.197"
       inkscape:connector-curvature="0"
       style="clip-rule:evenodd;fill:#ffffff;fill-rule:evenodd;stroke:#000000;stroke-width:2.90809989;stroke-linecap:round" /><path
       id="path33"
       d="M 83.103,104.35 C 97.15,159.2 184.967,145.157 181.657,90.137 177.691,24.242 69.673,36.957 83.103,104.35"
       inkscape:connector-curvature="0"
       style="clip-rule:evenodd;fill:#ffffff;fill-rule:evenodd;stroke:#000000;stroke-width:2.82139993;stroke-linecap:round" /><path
       id="path35"
       d="m 218.594,169.762 c 0.046,8.191 1.861,17.387 0.312,26.101 -2.091,3.952 -6.193,4.37 -9.729,5.967 -4.89,-0.767 -9.002,-3.978 -10.963,-8.552 -1.255,-9.946 0.468,-19.576 0.785,-29.526 l 19.595,6.01 z"
       inkscape:connector-curvature="0"
       style="clip-rule:evenodd;fill:#ffffff;fill-rule:evenodd;stroke:#000000;stroke-width:3;stroke-linecap:round" /><g
       id="g37"><ellipse
         id="ellipse39"
         ry="16.062"
         rx="14.829"
         cy="95.403999"
         cx="107.324"
         style="clip-rule:evenodd;fill-rule:evenodd" /><ellipse
         id="ellipse41"
         ry="4.0819998"
         rx="3.4960001"
         cy="99.028999"
         cx="114.069"
         style="clip-rule:evenodd;fill:#ffffff;fill-rule:evenodd" /></g><g
       id="g43"><ellipse
         id="ellipse45"
         ry="16.062"
         rx="14.582"
         cy="91.403999"
         cx="231.571"
         style="clip-rule:evenodd;fill-rule:evenodd" /><ellipse
         id="ellipse47"
         ry="4.0819998"
         rx="3.438"
         cy="95.028999"
         cx="238.20399"
         style="clip-rule:evenodd;fill:#ffffff;fill-rule:evenodd" /></g><path
       id="path49"
       d="m 176.217,168.87 c -6.47,15.68 3.608,47.035 21.163,23.908 -1.255,-9.946 0.468,-19.576 0.785,-29.526 l -21.948,5.618 z"
       inkscape:connector-curvature="0"
       style="clip-rule:evenodd;fill:#ffffff;fill-rule:evenodd;stroke:#000000;stroke-width:3;stroke-linecap:round" /><g
       id="g51"><path
         id="path53"
         d="m 178.431,138.673 c -12.059,1.028 -21.916,15.366 -15.646,26.709 8.303,15.024 26.836,-1.329 38.379,0.203 13.285,0.272 24.17,14.047 34.84,2.49 11.867,-12.854 -5.109,-25.373 -18.377,-30.97 l -39.196,1.568 z"
         inkscape:connector-curvature="0"
         style="clip-rule:evenodd;fill:#f6d2a2;fill-rule:evenodd;stroke:#231f20;stroke-width:3;stroke-linecap:round" /><path
         id="path55"
         d="m 176.913,138.045 c -0.893,-20.891 38.938,-23.503 43.642,-6.016 4.692,17.446 -41.681,21.498 -43.642,6.016 -1.565,-12.363 0,0 0,0 z"
         inkscape:connector-curvature="0"
         style="clip-rule:evenodd;fill-rule:evenodd" /></g></g><rect
     style="fill:#ffffff;fill-opacity:1;stroke:#006680;stroke-opacity:1"
     id="rect4263"
     width="176.84949"
     height="200.31766"
     x="0"
     y="121.3498"
     clip-path="url(#clipPath4329)"
     transform="matrix(1.3166403,0,0,1.9375306,-17.939189,-118.45654)" /><g
     transform="matrix(1.8961564,-1.0947464,1.0947464,1.8961564,-459.84091,-269.8507)"
     style="font-style:normal;font-variant:normal;font-weight:bold;font-stretch:normal;font-size:17.5px;line-height:125%;font-family:sans-serif;-inkscape-font-specification:'sans-serif Bold';letter-spacing:0px;word-spacing:0px;fill:#006680;fill-opacity:1;stroke:none;stroke-width:1px;stroke-linecap:butt;stroke-linejoin:miter;stroke-opacity:1"
     id="flowRoot4224"><path
       d="m 129.57568,303.56884 q -1.23047,0.59815 -2.55493,0.89722 -1.32446,0.29907 -2.73437,0.29907 -3.18726,0 -5.05005,-1.77734 -1.86279,-1.78589 -1.86279,-4.83643 0,-3.08471 1.89697,-4.85351 1.89697,-1.7688 5.19531,-1.7688 1.27319,0 2.4353,0.23926 1.17066,0.23925 2.20459,0.70922 l 0,2.64039 q -1.06811,-0.60669 -2.12768,-0.90577 -1.05103,-0.29907 -2.1106,-0.29907 -1.96533,0 -3.03345,1.1023 -1.05957,1.09375 -1.05957,3.13598 0,2.02515 1.02539,3.12744 1.0254,1.1023 2.91382,1.1023 0.5127,0 0.94849,-0.0598 0.44434,-0.0684 0.79468,-0.20507 l 0,-2.47803 -2.00806,0 0,-2.20459 5.12695,0 0,6.13525 z"
       id="path7119"
       inkscape:connector-curvature="0"
       style="fill:#006680;fill-opacity:1" /><path
       d="m 138.2915,293.91308 q -1.5039,0 -2.33276,1.11084 -0.82886,1.11084 -0.82886,3.12744 0,2.00806 0.82886,3.1189 0.82886,1.11084 2.33276,1.11084 1.51246,0 2.34131,-1.11084 0.82886,-1.11084 0.82886,-3.1189 0,-2.0166 -0.82886,-3.12744 -0.82885,-1.11084 -2.34131,-1.11084 z m 0,-2.38403 q 3.07618,0 4.81934,1.76025 1.74316,1.76026 1.74316,4.86206 0,3.09326 -1.74316,4.85352 -1.74316,1.76025 -4.81934,1.76025 -3.06762,0 -4.81933,-1.76025 -1.74317,-1.76026 -1.74317,-4.85352 0,-3.1018 1.74317,-4.86206 1.75171,-1.76025 4.81933,-1.76025 z"
       id="path7121"
       inkscape:connector-curvature="0"
       style="fill:#006680;fill-opacity:1" /></g><path
     inkscape:transform-center-y="-1.5566024"
     inkscape:transform-center-x="0.34789098"
     d="m 211.60827,74.824 -0.0332,103.56153 -89.70351,51.75202 -89.670315,-51.80951 0.03319,-103.561527 89.703505,-51.752019 z"
     inkscape:randomized="0"
     inkscape:rounded="0"
     inkscape:flatsided="true"
     sodipodi:arg2="0.0003204856"
     sodipodi:arg1="-0.52327829"
     sodipodi:r2="103.56153"
     sodipodi:r1="103.56153"
     sodipodi:cy="126.57602"
     sodipodi:cx="121.90476"
     sodipodi:sides="6"
     id="path7936"
     style="color:#000000;display:inline;overflow:visible;visibility:visible;fill:none;fill-opacity:1;fill-rule:nonzero;stroke:#0093d9;stroke-width:1.16022968;stroke-linecap:round;stroke-linejoin:miter;stroke-miterlimit:4;stroke-dasharray:2.32045933, 4.64091866;stroke-dashoffset:7.51718092;stroke-opacity:1;marker:none;enable-background:accumulate"
     sodipodi:type="star"
     transform="matrix(0.86033583,0,0,0.86346349,-14.018266,-4.0366998)" /></svg>